<svg viewBox="0 0 183 38" fill="none" xmlns="http://www.w3.org/2000/svg">
<g clip-path="url(#clip0)">
<path d="M141.7 8.1V4.7H137.3V8.1H135.5V0H137.3V3.1H141.7V0H143.5V8.1H141.7Z" fill="white"/>
<path d="M163.1 0V4.7C163.1 5.9 162.8 6.8 162.1 7.4C161.4 8 160.4 8.3 159.1 8.3C157.8 8.3 156.8 8 156.1 7.4C155.4 6.8 155.1 5.9 155.1 4.7V0H156.9V4.8C156.9 5.5 157.1 6 157.4 6.3C157.7 6.6 158.3 6.8 159 6.8C159.7 6.8 160.3 6.6 160.6 6.3C160.9 6 161.1 5.5 161.1 4.8V0H163.1Z" fill="white"/>
<path fill-rule="evenodd" clip-rule="evenodd" d="M174.9 0V8.1H179C180.2 8.1 181 7.9 181.6 7.5C182.2 7.1 182.5 6.5 182.5 5.7C182.5 4.8 182 4.2 180.9 3.8C181.8 3.5 182.2 2.9 182.2 2.1C182.2 0.7 181.1 0 178.9 0H174.9ZM180 3C179.7 3.1 179.3 3.2 178.8 3.2V3.3H176.5V1.4H178.7C179.3 1.4 179.7 1.5 180 1.6C180.3 1.8 180.4 2 180.4 2.3C180.4 2.6 180.2 2.8 180 3ZM180.3 6.5C180 6.7 179.5 6.8 178.9 6.8H176.6V4.6H178.9C179.6 4.6 180 4.7 180.3 4.9C180.6 5 180.7 5.3 180.7 5.7C180.7 6.1 180.6 6.3 180.3 6.5Z" fill="white"/>
<path fill-rule="evenodd" clip-rule="evenodd" d="M37.5 13.8C40.9 13.8 43.8 14.9 46.1 17.2C48.4 19.4 49.5 22.3 49.5 25.8C49.5 29.3 48.4 32.2 46.1 34.4C43.8 36.7 40.9 37.8 37.5 37.8C34.1 37.8 31.2 36.7 28.9 34.4C26.6 32.1 25.4 29.3 25.4 25.8C25.4 22.3 26.6 19.5 28.9 17.2C31.2 14.9 34.1 13.8 37.5 13.8ZM37.5 31.4C38.9 31.4 40.1 30.9 41.1 29.9C42.1 28.9 42.6 27.5 42.6 25.7C42.6 23.9 42.1 22.5 41.1 21.5C40.1 20.5 38.9 20.1 37.5 20.1C36.1 20.1 34.9 20.6 33.9 21.6C32.9 22.6 32.4 24 32.4 25.7C32.4 27.5 32.9 28.9 33.9 29.9C34.9 30.9 36.1 31.4 37.5 31.4Z" fill="white"/>
<path d="M67 37L75.6 14.4H68.2L63.4 28.5L58.2 14.4H50.7L60 37H67Z" fill="white"/>
<path fill-rule="evenodd" clip-rule="evenodd" d="M77.7 30.8C77.7 28.9 78.3 27.3 79.6 26.2C80.8 25 82.5 24.3 84.4 24L89.7 23.2C90.8 23 91.3 22.5 91.3 21.7C91.3 21 91 20.4 90.4 19.9C89.8 19.4 89 19.2 88 19.2C86.8 19.2 85.9 19.5 85.2 20.2C84.5 20.9 84.1 21.6 84.1 22.5L78.1 21.3C78.2 19.4 79.2 17.7 80.9 16.1C82.6 14.5 85 13.8 88 13.8C91.4 13.8 94 14.6 95.6 16.3C97.2 18 98 20 98 22.6V33.7C98 35.1 98.1 36.3 98.3 37.2H92.1C91.9 36.6 91.9 35.7001 91.9 34.7001C90.6 36.8001 88.5 37.9 85.5 37.9C83.1 37.9 81.2 37.2 79.8 35.9C78.4 34.3 77.7 32.7 77.7 30.8ZM87.2 32.7C88.4 32.7 89.4 32.4 90.2 31.7C91 31 91.4 29.8 91.4 28.2V27.2L87 27.9C85.3 28.2 84.5 29 84.5 30.4C84.5 31 84.7 31.6 85.2 32C85.6 32.5 86.3 32.7 87.2 32.7Z" fill="white"/>
<path d="M116.3 14.4H101.1V20.5H105.1V30.2C105.1 32.4 105.8 34.2 107.1 35.5C108.4 36.8 110.3 37.5 112.6 37.5C114.2 37.5 115.4 37.3 116.2 36.9V31.2C115.6 31.3 114.9 31.4 114.4 31.4C112.7 31.4 111.9 30.6 111.9 29V20.5H116.3V14.4Z" fill="white"/>
<path d="M128.6 37.1H120.9V14.4H128.6V37.1Z" fill="white"/>
<path fill-rule="evenodd" clip-rule="evenodd" d="M153.2 17.2C150.9 14.9 148 13.8 144.6 13.8C141.2 13.8 138.4 14.9 136 17.2C133.7 19.5 132.5 22.3 132.5 25.8C132.5 29.3 133.7 32.1 136 34.4C138.3 36.7 141.2 37.8 144.6 37.8C148 37.8 150.9 36.7 153.2 34.4C155.5 32.2 156.6 29.3 156.6 25.8C156.6 22.3 155.5 19.4 153.2 17.2ZM148.2 29.9C147.2 30.9 146 31.4 144.6 31.4C143.2 31.4 142 30.9 141 29.9C140 28.9 139.5 27.5 139.5 25.7C139.5 24 140 22.6 141 21.6C142 20.6 143.2 20.1 144.6 20.1C146 20.1 147.2 20.5 148.2 21.5C149.2 22.5 149.7 23.9 149.7 25.7C149.7 27.5 149.2 28.9 148.2 29.9Z" fill="white"/>
<path d="M13.56 15.96C10.84 15.96 8.40001 16.88 6.68001 18.68V16.32H-0.559992V38H7.04001V27.52C7.04001 23.92 8.92001 22.4 11.36 22.4C13.56 22.4 14.92 23.72 14.92 26.84V38H22.52V25.6C22.52 18.88 18.64 15.96 13.56 15.96Z" fill="white"/>
<path d="M166.68 17.68C168.4 15.88 170.84 14.96 173.56 14.96C178.64 14.96 182.52 17.88 182.52 24.6V37H174.92V25.84C174.92 22.72 173.56 21.4 171.36 21.4C168.92 21.4 167.04 22.92 167.04 26.52V37H159.44V15.32H166.68V17.68Z" fill="white"/>
<path d="M115.5 0.700001H0V8.4H115.5V0.700001Z" fill="white"/>
<path d="M122 0.700001C120.4 0.700001 119 2.5 119 4.6C119 6.7 120.4 8.4 122 8.5H127.4C129 8.5 130.4 6.7 130.4 4.6C130.4 2.4 129.1 0.700001 127.4 0.700001H122Z" fill="white"/>
</g>
<defs>
<clipPath id="clip0">
<rect width="182.5" height="37.8" fill="white"/>
</clipPath>
</defs>
</svg>
